<?xml version="1.0" encoding="UTF-8" standalone="no"?>
<svg
   xmlns:dc="http://purl.org/dc/elements/1.1/"
   xmlns:cc="http://creativecommons.org/ns#"
   xmlns:rdf="http://www.w3.org/1999/02/22-rdf-syntax-ns#"
   xmlns:svg="http://www.w3.org/2000/svg"
   xmlns="http://www.w3.org/2000/svg"
   xmlns:sodipodi="http://sodipodi.sourceforge.net/DTD/sodipodi-0.dtd"
   xmlns:inkscape="http://www.inkscape.org/namespaces/inkscape"
   version="1.1"
   id="svg2"
   xml:space="preserve"
   width="577.33331"
   height="186.66667"
   viewBox="0 0 577.33331 186.66667"
   sodipodi:docname="allwin logo_colour.ai"><metadata
     id="metadata8"><rdf:RDF><cc:Work
         rdf:about=""><dc:format>image/svg+xml</dc:format><dc:type
           rdf:resource="http://purl.org/dc/dcmitype/StillImage" /></cc:Work></rdf:RDF></metadata><defs
     id="defs6"><clipPath
       clipPathUnits="userSpaceOnUse"
       id="clipPath18"><path
         d="M 0,140 H 433 V 0 H 0 Z"
         id="path16" /></clipPath><linearGradient
       x1="0"
       y1="0"
       x2="1"
       y2="0"
       gradientUnits="userSpaceOnUse"
       gradientTransform="matrix(66.680298,82.343307,82.343307,-66.680298,52.969643,51.093105)"
       spreadMethod="pad"
       id="linearGradient160"><stop
         style="stop-opacity:1;stop-color:#2cac8b"
         offset="0"
         id="stop148" /><stop
         style="stop-opacity:1;stop-color:#3bb392"
         offset="0.208589"
         id="stop150" /><stop
         style="stop-opacity:1;stop-color:#84bf5f"
         offset="0.47158922"
         id="stop152" /><stop
         style="stop-opacity:1;stop-color:#84bf5f"
         offset="0.609617"
         id="stop154" /><stop
         style="stop-opacity:1;stop-color:#84bf5f"
         offset="0.60967945"
         id="stop156" /><stop
         style="stop-opacity:1;stop-color:#a6c74f"
         offset="1"
         id="stop158" /></linearGradient></defs><sodipodi:namedview
     pagecolor="#ffffff"
     bordercolor="#666666"
     borderopacity="1"
     objecttolerance="10"
     gridtolerance="10"
     guidetolerance="10"
     inkscape:pageopacity="0"
     inkscape:pageshadow="2"
     inkscape:window-width="640"
     inkscape:window-height="480"
     id="namedview4" /><g
     id="g10"
     inkscape:groupmode="layer"
     inkscape:label="allwin logo_colour"
     transform="matrix(1.3333333,0,0,-1.3333333,0,186.66667)"><g
       id="g12"><g
         id="g14"
         clip-path="url(#clipPath18)"><g
           id="g20"
           transform="translate(168.2744,80.9829)"><path
             d="m 0,0 5.069,11.314 c 1.485,2.964 2.966,7.101 4.293,10.3 h 0.156 c 0.235,-3.199 0.544,-7.412 0.702,-10.3 L 11.312,0 Z M 4.055,30.353 -21.536,-22.239 H -9.6 l 6.165,13.655 h 15.216 l 1.091,-13.655 H 24.655 L 18.57,30.353 Z"
             style="fill:#3f576d;fill-opacity:1;fill-rule:nonzero;stroke:none"
             id="path22" /></g><g
           id="g24"
           transform="translate(219.7764,111.3359)"><path
             d="m 0,0 h -11.236 l -9.987,-52.59 H 10.3 l 1.874,9.829 H -8.037 Z"
             style="fill:#3f576d;fill-opacity:1;fill-rule:nonzero;stroke:none"
             id="path26" /></g><g
           id="g28"
           transform="translate(258.7441,111.3359)"><path
             d="m 0,0 h -11.236 l -9.988,-52.59 H 10.3 l 1.874,9.829 H -8.037 Z"
             style="fill:#3f576d;fill-opacity:1;fill-rule:nonzero;stroke:none"
             id="path30" /></g><g
           id="g32"
           transform="translate(329.7539,111.335)"><path
             d="m 0,0 -9.054,-23.33 c -2.102,-5.696 -3.977,-11.392 -5.769,-16.854 h -0.157 c 0.23,5.153 0.388,10.455 0.466,16.698 L -14.278,0 h -12.409 l -9.442,-23.564 c -2.416,-6.398 -4.365,-11.781 -6.162,-16.854 h -0.235 c 0.235,4.758 0.39,10.689 0.39,17.088 V 0 h -11.393 l 2.029,-52.59 h 12.484 l 8.975,21.225 c 2.654,6.476 4.448,12.172 6.4,17.788 h 0.157 c -0.391,-5.93 -0.549,-11.236 -0.469,-17.477 l 0.389,-21.536 h 12.251 L 11.862,0 Z"
             style="fill:#3f576d;fill-opacity:1;fill-rule:nonzero;stroke:none"
             id="path34" /></g><g
           id="g36"
           transform="translate(339.6484,58.7456)"><path
             d="m 0,0 h 11.236 l 9.988,52.59 H 9.913 Z"
             style="fill:#3f576d;fill-opacity:1;fill-rule:nonzero;stroke:none"
             id="path38" /></g><g
           id="g40"
           transform="translate(404.3174,111.335)"><path
             d="m 0,0 -3.59,-19.115 c -1.483,-7.726 -2.259,-13.5 -2.419,-18.884 h -0.235 c -1.246,5.772 -2.649,11.236 -4.834,17.948 L -17.946,0 h -13.265 l -9.987,-52.59 h 10.531 l 3.435,18.413 c 1.561,8.27 2.81,15.686 3.357,20.836 h 0.309 c 1.405,-6.399 2.812,-11.161 5.153,-18.338 l 7.335,-20.911 H 0.545 L 10.534,0 Z"
             style="fill:#3f576d;fill-opacity:1;fill-rule:nonzero;stroke:none"
             id="path42" /></g><g
           id="g44"
           transform="translate(100.5415,32.3115)"><path
             d="m 0,0 h -14.015 l -0.519,-2.598 h 5.475 l -2.785,-13.916 h 3.069 l 2.758,13.916 h 5.473 z"
             style="fill:#79b942;fill-opacity:1;fill-rule:nonzero;stroke:none"
             id="path46" /></g><g
           id="g48"
           transform="translate(104.6475,26.7666)"><path
             d="M 0,0 0.329,1.627 H -2.476 L -4.98,-10.969 h 2.952 l 1.247,6.202 c 0.503,2.532 1.957,3.8 4.365,3.8 0.221,0 0.465,-0.022 0.733,-0.072 L 4.858,1.77 C 3.756,1.77 2.811,1.635 2.015,1.367 1.222,1.103 0.55,0.646 0,0"
             style="fill:#79b942;fill-opacity:1;fill-rule:nonzero;stroke:none"
             id="path50" /></g><g
           id="g52"
           transform="translate(120.7368,21.8584)"><path
             d="m 0,0 c -0.238,-1.211 -0.708,-2.121 -1.418,-2.722 -0.708,-0.604 -1.597,-0.911 -2.663,-0.911 -0.836,0 -1.46,0.196 -1.878,0.591 -0.415,0.391 -0.626,0.962 -0.626,1.697 0,0.331 0.033,0.654 0.096,0.965 l 1.391,6.916 h -2.949 l -1.391,-6.984 c -0.11,-0.503 -0.164,-1.006 -0.164,-1.512 0,-1.351 0.41,-2.4 1.238,-3.146 0.825,-0.747 1.93,-1.122 3.313,-1.122 1.716,0 3.138,0.521 4.27,1.557 l -0.282,-1.39 H 1.744 L 4.27,6.536 H 1.321 Z"
             style="fill:#79b942;fill-opacity:1;fill-rule:nonzero;stroke:none"
             id="path54" /></g><g
           id="g56"
           transform="translate(131.2925,25.7285)"><path
             d="m 0,0 c 0.478,0.282 1.184,0.421 2.113,0.421 0.662,0 1.318,-0.079 1.968,-0.232 0.653,-0.158 1.238,-0.402 1.758,-0.732 L 6.927,1.72 C 6.405,2.051 5.735,2.316 4.92,2.514 4.103,2.707 3.258,2.805 2.395,2.805 c -1.807,0 -3.259,-0.377 -4.352,-1.143 -1.094,-0.762 -1.64,-1.795 -1.64,-3.099 0,-0.79 0.207,-1.405 0.626,-1.854 0.415,-0.448 0.913,-0.771 1.484,-0.967 0.577,-0.197 1.312,-0.383 2.206,-0.554 0.866,-0.19 1.501,-0.37 1.9,-0.544 0.402,-0.173 0.601,-0.447 0.601,-0.824 0,-0.489 -0.238,-0.861 -0.719,-1.121 -0.481,-0.261 -1.192,-0.39 -2.135,-0.39 -0.833,0 -1.643,0.111 -2.43,0.33 -0.787,0.219 -1.438,0.519 -1.96,0.897 l -1.227,-2.265 c 0.538,-0.395 1.287,-0.72 2.255,-0.98 0.968,-0.257 1.987,-0.388 3.053,-0.388 1.826,0 3.289,0.369 4.39,1.107 1.102,0.741 1.651,1.788 1.651,3.141 0,0.754 -0.205,1.35 -0.612,1.79 -0.41,0.44 -0.896,0.757 -1.462,0.955 -0.566,0.199 -1.291,0.382 -2.171,0.554 -0.883,0.192 -1.53,0.375 -1.949,0.555 -0.415,0.181 -0.623,0.476 -0.623,0.887 0,0.456 0.241,0.824 0.719,1.108"
             style="fill:#79b942;fill-opacity:1;fill-rule:nonzero;stroke:none"
             id="path58" /></g><g
           id="g60"
           transform="translate(146.3066,31.1768)"><path
             d="m 0,0 h -2.947 l -0.566,-2.875 h -2.053 l -0.473,-2.362 h 2.053 l -1.202,-5.944 c -0.063,-0.316 -0.093,-0.644 -0.093,-0.991 0,-1.054 0.328,-1.878 0.989,-2.477 0.662,-0.598 1.534,-0.896 2.619,-0.896 1.224,0 2.241,0.251 3.042,0.751 l -0.516,2.174 c -0.49,-0.331 -1.039,-0.498 -1.654,-0.498 -0.99,0 -1.487,0.475 -1.487,1.419 0,0.109 0.016,0.29 0.049,0.541 l 1.181,5.921 h 3.395 l 0.473,2.362 h -3.398 z"
             style="fill:#79b942;fill-opacity:1;fill-rule:nonzero;stroke:none"
             id="path62" /></g><g
           id="g64"
           transform="translate(168.0474,20.4316)"><path
             d="m 0,0 c -0.369,-0.714 -0.883,-1.274 -1.544,-1.676 -0.662,-0.399 -1.402,-0.599 -2.22,-0.599 -1.052,0 -1.869,0.279 -2.452,0.837 -0.582,0.557 -0.872,1.331 -0.872,2.323 0,0.913 0.184,1.724 0.555,2.441 0.369,0.716 0.883,1.277 1.545,1.676 0.659,0.402 1.399,0.601 2.217,0.601 1.052,0 1.869,-0.281 2.452,-0.836 C 0.263,4.206 0.555,3.433 0.555,2.443 0.555,1.527 0.369,0.716 0,0 M 1.31,6.146 C 0.902,6.79 0.331,7.275 -0.401,7.609 -1.131,7.939 -1.992,8.102 -2.982,8.102 -4.321,8.102 -5.529,7.79 -6.607,7.161 -7.681,6.53 -8.528,5.658 -9.143,4.543 c -0.612,-1.116 -0.919,-2.384 -0.919,-3.8 0,-1.132 0.244,-2.118 0.733,-2.96 0.487,-0.84 1.151,-1.482 1.993,-1.926 0.842,-0.439 1.779,-0.657 2.818,-0.657 1.588,0 2.949,0.486 4.084,1.462 l -0.26,-1.296 H 2.113 L 5.604,12.869 H 2.655 Z"
             style="fill:#79b942;fill-opacity:1;fill-rule:nonzero;stroke:none"
             id="path66" /></g><g
           id="g68"
           transform="translate(179.7388,26.7666)"><path
             d="m 0,0 0.328,1.627 h -2.805 l -2.501,-12.596 h 2.949 l 1.25,6.202 c 0.503,2.532 1.957,3.8 4.365,3.8 0.219,0 0.462,-0.022 0.733,-0.072 L 4.86,1.77 C 3.758,1.77 2.81,1.635 2.017,1.367 1.222,1.103 0.552,0.646 0,0"
             style="fill:#79b942;fill-opacity:1;fill-rule:nonzero;stroke:none"
             id="path70" /></g><g
           id="g72"
           transform="translate(185.2578,15.7988)"><path
             d="M 0,0 H 2.95 L 5.448,12.596 H 2.501 Z"
             style="fill:#79b942;fill-opacity:1;fill-rule:nonzero;stroke:none"
             id="path74" /></g><g
           id="g76"
           transform="translate(190.1396,34.0088)"><path
             d="m 0,0 c -0.598,0 -1.077,-0.181 -1.451,-0.541 -0.367,-0.364 -0.553,-0.813 -0.553,-1.349 0,-0.455 0.165,-0.843 0.498,-1.164 0.328,-0.322 0.754,-0.483 1.271,-0.483 0.596,0 1.08,0.178 1.452,0.544 0.369,0.361 0.552,0.828 0.552,1.413 0,0.437 -0.162,0.814 -0.492,1.121 C 0.946,-0.153 0.522,0 0,0"
             style="fill:#79b942;fill-opacity:1;fill-rule:nonzero;stroke:none"
             id="path78" /></g><g
           id="g80"
           transform="translate(204.1309,28.3945)"><path
             d="M 0,0 -5.872,-9.365 -7.971,0 h -2.903 l 2.903,-12.597 h 3.042 L 2.974,0 Z"
             style="fill:#79b942;fill-opacity:1;fill-rule:nonzero;stroke:none"
             id="path82" /></g><g
           id="g84"
           transform="translate(210.0308,23.1807)"><path
             d="m 0,0 c 0.268,0.929 0.749,1.659 1.449,2.195 0.7,0.534 1.547,0.801 2.537,0.801 0.989,0 1.782,-0.265 2.37,-0.793 C 6.949,1.678 7.233,0.943 7.217,0 Z M 4.128,5.353 C 2.745,5.353 1.495,5.041 0.388,4.412 -0.721,3.78 -1.588,2.903 -2.208,1.779 c -0.618,-1.123 -0.93,-2.385 -0.93,-3.785 0,-1.098 0.252,-2.072 0.752,-2.914 0.503,-0.842 1.225,-1.49 2.162,-1.949 0.932,-0.454 2.031,-0.681 3.291,-0.681 0.99,0 1.936,0.145 2.843,0.437 0.902,0.293 1.678,0.725 2.324,1.307 L 7.006,-3.753 C 6.566,-4.16 6.03,-4.479 5.402,-4.707 4.773,-4.937 4.098,-5.049 3.373,-5.049 c -2.375,0 -3.586,1.028 -3.632,3.089 H 9.742 c 0.126,0.582 0.189,1.181 0.189,1.793 0,1.714 -0.528,3.064 -1.583,4.046 -1.049,0.984 -2.46,1.474 -4.22,1.474"
             style="fill:#79b942;fill-opacity:1;fill-rule:nonzero;stroke:none"
             id="path86" /></g><g
           id="g88"
           transform="translate(231.4512,28.5342)"><path
             d="m 0,0 c -1.761,0 -3.209,-0.512 -4.341,-1.533 l 0.282,1.393 h -2.808 l -2.501,-12.598 h 2.95 l 1.323,6.536 c 0.251,1.211 0.729,2.121 1.437,2.724 0.708,0.608 1.602,0.909 2.693,0.909 1.681,0 2.523,-0.763 2.523,-2.288 0,-0.331 -0.033,-0.655 -0.096,-0.968 l -1.366,-6.913 h 2.946 l 1.394,6.984 C 4.543,-5.125 4.6,-4.622 4.6,-4.242 4.6,-2.893 4.19,-1.849 3.362,-1.107 2.536,-0.369 1.416,0 0,0"
             style="fill:#79b942;fill-opacity:1;fill-rule:nonzero;stroke:none"
             id="path90" /></g><g
           id="g92"
           transform="translate(256.374,20.4316)"><path
             d="m 0,0 c -0.366,-0.714 -0.886,-1.274 -1.542,-1.676 -0.664,-0.399 -1.399,-0.599 -2.222,-0.599 -1.052,0 -1.87,0.279 -2.452,0.837 -0.583,0.557 -0.875,1.331 -0.875,2.323 0,0.913 0.187,1.724 0.559,2.441 0.37,0.716 0.885,1.277 1.544,1.676 0.658,0.402 1.399,0.601 2.217,0.601 1.051,0 1.872,-0.281 2.452,-0.836 C 0.263,4.206 0.556,3.433 0.556,2.443 0.556,1.527 0.371,0.716 0,0 m 1.312,6.146 c -0.41,0.644 -0.979,1.129 -1.71,1.463 -0.734,0.33 -1.595,0.493 -2.586,0.493 -1.337,0 -2.545,-0.312 -3.62,-0.941 -1.08,-0.631 -1.924,-1.503 -2.54,-2.618 -0.609,-1.116 -0.918,-2.384 -0.918,-3.8 0,-1.132 0.247,-2.118 0.735,-2.96 0.484,-0.84 1.148,-1.482 1.99,-1.926 0.839,-0.439 1.782,-0.657 2.821,-0.657 1.588,0 2.95,0.486 4.081,1.462 L -0.694,-4.634 H 2.11 L 5.604,12.869 H 2.657 Z"
             style="fill:#79b942;fill-opacity:1;fill-rule:nonzero;stroke:none"
             id="path94" /></g><g
           id="g96"
           transform="translate(266.3389,23.1807)"><path
             d="m 0,0 c 0.271,0.929 0.754,1.659 1.454,2.195 0.7,0.534 1.547,0.801 2.534,0.801 0.992,0 1.785,-0.265 2.373,-0.793 C 6.954,1.678 7.238,0.943 7.225,0 Z M 4.13,5.353 C 2.75,5.353 1.503,5.041 0.392,4.412 -0.714,3.78 -1.583,2.903 -2.203,1.779 c -0.62,-1.123 -0.933,-2.385 -0.933,-3.785 0,-1.098 0.252,-2.072 0.755,-2.914 0.506,-0.842 1.226,-1.49 2.159,-1.949 0.935,-0.454 2.032,-0.681 3.294,-0.681 0.988,0 1.936,0.145 2.843,0.437 0.902,0.293 1.676,0.725 2.324,1.307 L 7.011,-3.753 C 6.571,-4.16 6.035,-4.479 5.407,-4.707 4.775,-4.937 4.101,-5.049 3.378,-5.049 c -2.375,0 -3.589,1.028 -3.632,3.089 h 9.999 c 0.128,0.582 0.192,1.181 0.192,1.793 0,1.714 -0.529,3.064 -1.581,4.046 C 7.305,4.863 5.894,5.353 4.13,5.353"
             style="fill:#79b942;fill-opacity:1;fill-rule:nonzero;stroke:none"
             id="path98" /></g><g
           id="g100"
           transform="translate(289.5068,28.3945)"><path
             d="M 0,0 -5.869,-9.365 -7.972,0 h -2.902 l 2.902,-12.597 h 3.04 L 2.977,0 Z"
             style="fill:#79b942;fill-opacity:1;fill-rule:nonzero;stroke:none"
             id="path102" /></g><g
           id="g104"
           transform="translate(295.4062,23.1807)"><path
             d="M 0,0 C 0.27,0.929 0.754,1.659 1.451,2.195 2.15,2.729 2.998,2.996 3.987,2.996 4.977,2.996 5.772,2.731 6.359,2.203 6.947,1.678 7.234,0.943 7.221,0 Z M 4.13,5.353 C 2.747,5.353 1.5,5.041 0.39,4.412 -0.72,3.78 -1.58,2.903 -2.204,1.779 -2.824,0.656 -3.14,-0.606 -3.14,-2.006 c 0,-1.098 0.255,-2.072 0.759,-2.914 0.503,-0.842 1.224,-1.49 2.158,-1.949 0.936,-0.454 2.035,-0.681 3.291,-0.681 0.991,0 1.937,0.145 2.844,0.437 0.901,0.293 1.681,0.725 2.323,1.307 L 7.006,-3.753 C 6.564,-4.16 6.029,-4.479 5.405,-4.707 4.774,-4.937 4.1,-5.049 3.375,-5.049 1,-5.049 -0.211,-4.021 -0.261,-1.96 H 9.747 c 0.122,0.582 0.186,1.181 0.186,1.793 0,1.714 -0.528,3.064 -1.58,4.046 C 7.298,4.863 5.89,5.353 4.13,5.353"
             style="fill:#79b942;fill-opacity:1;fill-rule:nonzero;stroke:none"
             id="path106" /></g><g
           id="g108"
           transform="translate(307.4609,15.7969)"><path
             d="M 0,0 H 2.95 L 6.443,17.504 H 3.491 Z"
             style="fill:#79b942;fill-opacity:1;fill-rule:nonzero;stroke:none"
             id="path110" /></g><g
           id="g112"
           transform="translate(325.1787,20.4316)"><path
             d="m 0,0 c -0.377,-0.714 -0.892,-1.273 -1.544,-1.676 -0.653,-0.398 -1.397,-0.6 -2.228,-0.6 -1.058,0 -1.873,0.277 -2.454,0.839 -0.584,0.556 -0.873,1.331 -0.873,2.323 0,0.913 0.186,1.724 0.566,2.44 0.378,0.717 0.891,1.278 1.545,1.676 0.65,0.402 1.397,0.602 2.23,0.602 1.055,0 1.87,-0.282 2.452,-0.836 C 0.276,4.207 0.565,3.434 0.565,2.443 0.565,1.528 0.38,0.717 0,0 m 0.64,7.421 c -0.929,0.454 -2.006,0.682 -3.236,0.682 -1.43,0 -2.716,-0.318 -3.855,-0.955 C -7.593,6.512 -8.482,5.634 -9.119,4.519 -9.753,3.4 -10.073,2.144 -10.073,0.743 c 0,-1.1 0.252,-2.069 0.758,-2.903 0.502,-0.83 1.212,-1.481 2.132,-1.945 0.918,-0.465 1.995,-0.695 3.217,-0.695 1.435,0 2.72,0.32 3.862,0.965 1.138,0.647 2.029,1.525 2.674,2.644 0.648,1.118 0.97,2.378 0.97,3.774 0,1.102 -0.251,2.069 -0.754,2.903 C 2.283,6.32 1.567,6.965 0.64,7.421"
             style="fill:#79b942;fill-opacity:1;fill-rule:nonzero;stroke:none"
             id="path114" /></g><g
           id="g116"
           transform="translate(342.0693,20.4316)"><path
             d="m 0,0 c -0.377,-0.714 -0.891,-1.273 -1.544,-1.676 -0.653,-0.398 -1.396,-0.6 -2.227,-0.6 -1.056,0 -1.875,0.277 -2.458,0.839 -0.58,0.556 -0.87,1.331 -0.87,2.323 0,0.913 0.186,1.724 0.566,2.44 0.375,0.717 0.891,1.278 1.546,1.676 0.649,0.402 1.396,0.602 2.227,0.602 1.055,0 1.872,-0.282 2.454,-0.836 C 0.276,4.207 0.569,3.434 0.569,2.443 0.569,1.528 0.378,0.717 0,0 m 0.815,7.443 c -0.845,0.441 -1.78,0.66 -2.818,0.66 -1.638,0 -3.004,-0.485 -4.105,-1.463 l 0.256,1.322 h -2.805 l -3.425,-17.177 h 2.952 l 1.275,6.444 c 0.407,-0.663 0.983,-1.166 1.721,-1.509 0.741,-0.351 1.609,-0.52 2.595,-0.52 1.323,0 2.52,0.318 3.601,0.956 1.076,0.637 1.923,1.518 2.546,2.641 C 3.229,-0.08 3.54,1.187 3.54,2.583 3.54,3.715 3.297,4.699 2.809,5.532 2.321,6.366 1.654,7.003 0.815,7.443"
             style="fill:#79b942;fill-opacity:1;fill-rule:nonzero;stroke:none"
             id="path118" /></g><g
           id="g120"
           transform="translate(365.873,28.5342)"><path
             d="M 0,0 C -2.028,0 -3.687,-0.689 -4.977,-2.072 -5.324,-1.399 -5.833,-0.884 -6.511,-0.53 -7.183,-0.176 -7.98,0 -8.892,0 c -1.684,0 -3.061,-0.503 -4.129,-1.51 l 0.261,1.37 h -2.81 l -2.501,-12.598 h 2.952 l 1.321,6.536 c 0.484,2.422 1.777,3.633 3.865,3.633 1.604,0 2.408,-0.755 2.408,-2.266 0,-0.346 -0.033,-0.677 -0.096,-0.99 l -1.388,-6.913 h 2.949 l 1.32,6.557 c 0.487,2.409 1.777,3.612 3.868,3.612 1.605,0 2.406,-0.755 2.406,-2.266 0,-0.346 -0.03,-0.677 -0.093,-0.99 L 0.05,-12.738 h 2.946 l 1.392,6.983 c 0.112,0.533 0.166,1.054 0.166,1.557 0,1.352 -0.407,2.39 -1.216,3.113 C 2.526,-0.361 1.416,0 0,0"
             style="fill:#79b942;fill-opacity:1;fill-rule:nonzero;stroke:none"
             id="path122" /></g><g
           id="g124"
           transform="translate(376.7246,23.1807)"><path
             d="M 0,0 C 0.268,0.929 0.758,1.659 1.451,2.195 2.154,2.729 2.995,2.996 3.988,2.996 4.98,2.996 5.771,2.731 6.36,2.203 6.951,1.678 7.235,0.943 7.22,0 Z M 4.131,5.353 C 2.747,5.353 1.5,5.041 0.391,4.412 -0.719,3.78 -1.579,2.903 -2.203,1.779 c -0.623,-1.123 -0.93,-2.385 -0.93,-3.785 0,-1.098 0.246,-2.072 0.754,-2.914 0.501,-0.842 1.221,-1.49 2.154,-1.949 0.939,-0.454 2.037,-0.681 3.292,-0.681 0.993,0 1.944,0.145 2.845,0.437 0.905,0.293 1.679,0.725 2.324,1.307 L 7.012,-3.753 C 6.568,-4.16 6.035,-4.479 5.406,-4.707 4.775,-4.937 4.101,-5.049 3.375,-5.049 1,-5.049 -0.207,-4.021 -0.257,-1.96 H 9.745 c 0.125,0.582 0.192,1.181 0.192,1.793 0,1.714 -0.531,3.064 -1.583,4.046 -1.055,0.984 -2.46,1.474 -4.223,1.474"
             style="fill:#79b942;fill-opacity:1;fill-rule:nonzero;stroke:none"
             id="path126" /></g><g
           id="g128"
           transform="translate(398.1475,28.5342)"><path
             d="m 0,0 c -1.761,0 -3.207,-0.512 -4.341,-1.533 l 0.284,1.393 h -2.81 l -2.501,-12.598 h 2.949 l 1.323,6.536 c 0.249,1.211 0.733,2.121 1.438,2.724 0.711,0.608 1.608,0.909 2.69,0.909 1.684,0 2.526,-0.763 2.526,-2.288 0,-0.331 -0.033,-0.655 -0.099,-0.968 l -1.364,-6.913 h 2.947 l 1.394,6.984 c 0.11,0.629 0.167,1.132 0.167,1.512 0,1.349 -0.418,2.393 -1.241,3.135 C 2.534,-0.369 1.416,0 0,0"
             style="fill:#79b942;fill-opacity:1;fill-rule:nonzero;stroke:none"
             id="path130" /></g><g
           id="g132"
           transform="translate(410.9805,25.9395)"><path
             d="M 0,0 H 3.398 L 3.871,2.362 H 0.473 L 1.062,5.237 H -1.883 L -2.449,2.362 H -4.507 L -4.975,0 h 2.05 l -1.202,-5.943 c -0.062,-0.317 -0.099,-0.645 -0.099,-0.992 0,-1.053 0.334,-1.878 0.996,-2.477 0.662,-0.598 1.535,-0.896 2.618,-0.896 1.227,0 2.239,0.251 3.046,0.751 L 1.911,-7.383 C 1.422,-7.714 0.872,-7.881 0.266,-7.881 c -0.993,0 -1.493,0.476 -1.493,1.419 0,0.109 0.019,0.29 0.049,0.541 z"
             style="fill:#79b942;fill-opacity:1;fill-rule:nonzero;stroke:none"
             id="path134" /></g></g></g><g
       id="g136"><g
         id="g138"><g
           id="g144"><g
             id="g146"><path
               d="m 111.799,109.679 c 0,-4.249 1.856,-8.054 4.787,-10.684 v 0 L 103.212,71.574 c -1.026,0.261 -2.095,0.415 -3.203,0.415 v 0 c -0.765,0 -1.509,-0.079 -2.238,-0.206 v 0 L 91.101,93.6 c 1.721,1.862 2.78,4.344 2.78,7.079 v 0 c 0,5.771 -4.677,10.449 -10.449,10.449 v 0 c -5.771,0 -10.447,-4.678 -10.447,-10.449 v 0 c 0,-2.314 0.761,-4.446 2.035,-6.177 v 0 L 60.454,77.144 c -0.834,0.241 -1.712,0.376 -2.623,0.376 v 0 c -0.283,0 -0.562,-0.018 -0.838,-0.043 v 0 l -5.02,16.417 c 1.655,1.409 2.708,3.504 2.708,5.848 v 0 c 0,4.241 -3.439,7.68 -7.681,7.68 v 0 c -4.242,0 -7.681,-3.439 -7.681,-7.68 v 0 c 0,-1.265 0.312,-2.456 0.852,-3.507 v 0 L 31.162,85.497 c -1.041,0.702 -2.294,1.113 -3.644,1.113 v 0 c -3.6,0 -6.517,-2.919 -6.517,-6.519 v 0 c 0,-3.6 2.917,-6.518 6.517,-6.518 v 0 c 3.6,0 6.518,2.918 6.518,6.518 v 0 c 0,1.126 -0.285,2.185 -0.788,3.11 v 0 l 8.89,10.595 C 43.463,92.712 45.155,92.06 47,92.06 v 0 c 0.315,0 0.623,0.025 0.929,0.062 v 0 l 4.903,-16.041 c -2.675,-1.672 -4.461,-4.634 -4.461,-8.022 v 0 c 0,-5.224 4.235,-9.46 9.46,-9.46 v 0 c 5.225,0 9.46,4.236 9.46,9.46 v 0 c 0,2.469 -0.953,4.709 -2.501,6.393 v 0 l 14.115,16.821 c 1.371,-0.661 2.902,-1.042 4.527,-1.042 v 0 c 0.509,0 1.006,0.049 1.496,0.119 v 0 l 6.586,-21.543 c -2.74,-2.379 -4.48,-5.879 -4.48,-9.793 v 0 c 0,-7.166 5.809,-12.974 12.975,-12.974 v 0 c 7.166,0 12.975,5.808 12.975,12.974 v 0 c 0,2.831 -0.917,5.442 -2.456,7.575 v 0 l 14.055,28.817 c 0.52,-0.056 1.046,-0.092 1.581,-0.092 v 0 c 7.932,0 14.363,6.432 14.363,14.365 v 0 c 0,7.932 -6.431,14.363 -14.363,14.363 v 0 c -7.934,0 -14.365,-6.431 -14.365,-14.363"
               style="fill:url(#linearGradient160);stroke:none"
               id="path162" /></g></g></g></g></g></svg>
